<svg width="653" height="738" viewBox="0 0 653 738" fill="none" xmlns="http://www.w3.org/2000/svg">
<g clip-path="url(#clip0_998_2)">
<path d="M289.905 618.047C249.885 645.411 210.094 652.355 177.863 637.602C136.502 618.67 111.447 566.545 109.123 494.593L111.573 494.823C113.864 565.773 138.327 617.061 178.687 635.535C210.054 649.892 248.985 642.992 288.31 616.105L289.905 618.047Z" fill="#404040"/>
<path d="M537.225 154.729C533.284 198.152 522.056 243.94 504.447 288.118C482.672 342.751 452.921 390.872 418.411 427.278L416.495 425.608C450.839 389.377 480.454 341.469 502.139 287.062C521.736 237.895 533.393 186.73 535.863 139.12L538.311 139.53C538.051 144.558 537.689 149.624 537.225 154.729Z" fill="#404040"/>
<path d="M430.908 93.0151L428.529 93.2757C417.921 51.5913 397.361 22.7128 369.067 9.76169C333.1 -6.70152 288.624 4.35384 243.833 40.8917C198.815 77.6161 158.962 135.625 131.616 204.235L129.308 203.178C156.773 134.269 196.831 75.9797 242.102 39.0512C287.599 1.93596 332.983 -9.20045 369.891 7.69382C398.996 21.0161 420.095 50.5198 430.908 93.0151Z" fill="#404040"/>
<path d="M563 456.479C502.834 539.745 429.841 599.239 357.464 624L356 621.665C427.876 597.075 500.442 537.886 560.333 455L563 456.479Z" fill="#404040"/>
<path d="M637.708 283.15C636.909 291.951 635.885 300.859 634.636 309.875L632.205 309.286C641.534 242.003 638.225 180.312 622.632 130.87L624.974 130.478C638.575 173.607 642.898 225.957 637.708 283.15Z" fill="#404040"/>
<path d="M131.434 216.304C125.212 229.41 119.295 242.989 113.845 256.662C82.4843 335.344 66.5921 415.699 67.8908 489.045L65.4398 488.784C64.1398 415.165 80.0777 334.533 111.536 255.605C117.002 241.894 122.936 228.277 129.176 215.133L131.434 216.304Z" fill="#404040"/>
<path d="M288.729 672.111C248.708 699.475 208.917 706.419 176.687 691.666C135.326 672.734 110.271 620.609 107.946 548.657L110.397 548.887C112.688 619.837 137.15 671.124 177.511 689.598C208.877 703.956 247.809 697.055 287.134 670.168L288.729 672.111Z" fill="#404040"/>
<path d="M536.049 208.792C532.107 252.216 520.88 298.003 503.271 342.182C481.496 396.815 451.745 444.936 417.234 481.341L415.319 479.671C449.663 443.441 479.278 395.533 500.963 341.126C520.56 291.959 532.216 240.794 534.687 193.184L537.134 193.594C536.874 198.622 536.513 203.688 536.049 208.792Z" fill="#404040"/>
<path d="M531.732 150.079L529.352 150.339C518.745 108.655 498.184 79.7765 469.891 66.8254C433.923 50.3622 389.447 61.4175 344.657 97.9554C299.638 134.68 259.785 192.688 232.44 261.298L230.131 260.242C257.597 191.332 297.655 133.043 342.925 96.1149C388.423 58.9997 433.806 47.8633 470.715 64.7575C499.82 78.0798 520.919 107.584 531.732 150.079Z" fill="#404040"/>
<path d="M559.745 528.987C511.273 606.103 452.465 661.203 394.155 684.135L392.975 681.973C450.882 659.199 509.345 604.381 557.596 527.617L559.745 528.987Z" fill="#404040"/>
<path d="M636.531 337.214C635.732 346.014 634.708 354.923 633.459 363.939L631.028 363.35C640.358 296.067 637.049 234.376 621.455 184.934L623.798 184.542C637.399 227.671 641.722 280.02 636.531 337.214Z" fill="#404040"/>
<path d="M130.257 270.367C124.036 283.474 118.118 297.053 112.668 310.725C81.3078 389.408 65.4157 469.763 66.7143 543.109L64.2633 542.847C62.9633 469.229 78.9012 388.597 110.36 309.669C115.825 295.958 121.76 282.341 127.999 269.197L130.257 270.367Z" fill="#404040"/>
<path d="M599.149 232.428C601.859 228.355 600.255 222.526 595.567 219.407C590.879 216.288 584.883 217.061 582.173 221.134C579.464 225.206 581.068 231.036 585.755 234.155C590.443 237.273 596.44 236.5 599.149 232.428Z" fill="#FD6584"/>
<path d="M287.726 284.343C293.4 275.649 302.663 268.817 312.979 268.24C323.295 267.662 335.693 276.448 340.785 285.487C350.098 302.023 346.057 317.922 333.229 329.423C331.487 328.832 325.405 327.047 323.634 326.476L322.511 324.448L321.125 325.681C305.273 327.263 289.959 325.501 278.027 313.689C279.511 303.409 282.053 293.037 287.726 284.343Z" fill="#2F2E41"/>
<path d="M330.231 400.404L328.357 417.785L329.46 440.578L278.975 434.58L274.231 400.404L280.275 400.463L330.231 400.404Z" fill="#FFB6B6"/>
<path d="M309.503 325.292C321.08 325.292 330.466 315.906 330.466 304.328C330.466 292.75 321.08 283.365 309.503 283.365C297.925 283.365 288.539 292.75 288.539 304.328C288.539 315.906 297.925 325.292 309.503 325.292Z" fill="#FFB7B7"/>
<path d="M286.273 343.279L298.27 336.081L322.262 333.682L343.468 344.48L343.256 377.468L329.803 411.682L273.42 404.485L271.278 392.416C271.278 392.416 255.683 371.47 272.478 359.474L286.273 343.279Z" fill="#EC4899"/>
<path d="M301.665 272.491C306.207 271.217 311.008 271.187 315.566 272.405C320.124 273.622 324.271 276.041 327.574 279.41C330.876 282.778 333.214 286.972 334.341 291.553C335.468 296.134 335.344 300.933 333.981 305.45C321.213 306.469 308.593 305.277 298.644 296.243L297.759 288.495L294.129 294.979C290.468 293.949 286.801 292.913 283.128 291.87C284.252 287.3 286.555 283.105 289.808 279.704C293.061 276.303 297.149 273.816 301.665 272.491Z" fill="#2F2E41"/>
<path d="M214.273 245.325C213.704 246.537 213.409 247.859 213.406 249.198C213.404 250.537 213.695 251.86 214.26 253.074C214.824 254.288 215.647 255.363 216.672 256.225C217.697 257.086 218.899 257.712 220.192 258.059L259.25 331.755L275.015 319.587L231.665 250.972C232.103 248.762 231.716 246.467 230.575 244.522C229.435 242.578 227.621 241.12 225.477 240.424C223.333 239.728 221.009 239.842 218.944 240.746C216.879 241.649 215.217 243.279 214.273 245.325Z" fill="#FFB6B6"/>
<path d="M278.342 356.657C278.342 356.657 274.723 359.867 269.576 351.004C265.455 343.908 244.905 312.133 241.995 301.119C240.399 301.164 238.833 300.676 237.545 299.734C236.256 298.791 235.317 297.446 234.877 295.911L256.951 287.343C261.75 289.743 260.418 293.068 259.201 294.788L267.422 307.12L294.768 337.808L281 354.383L278.342 356.657Z" fill="#EC4899"/>
<path d="M651.485 737.697H1.19067C0.874886 737.697 0.57202 737.572 0.348724 737.349C0.125429 737.125 0 736.822 0 736.507C0 736.191 0.125429 735.888 0.348724 735.665C0.57202 735.441 0.874886 735.316 1.19067 735.316H651.485C651.8 735.316 652.103 735.441 652.327 735.665C652.55 735.888 652.675 736.191 652.675 736.507C652.675 736.822 652.55 737.125 652.327 737.349C652.103 737.572 651.8 737.697 651.485 737.697Z" fill="#404040"/>
<path d="M494.323 73.224C482.754 61.8487 467.305 55.5705 451.812 51.554C434.274 47.0073 416.138 44.329 398.222 41.7595C379.55 39.0815 360.804 37.016 341.984 35.5629C323.189 34.1174 304.36 33.29 285.497 33.0805C268.689 32.8927 251.769 32.8869 235.042 34.7471C219.288 36.4992 203.572 40.0151 189.369 47.2331C176.727 53.52 166.105 63.218 158.711 75.2254C151.914 86.4021 147.873 99.8 149.278 112.938C149.937 119.407 151.956 125.665 155.204 131.303C159.011 137.534 163.862 143.066 169.547 147.658C181.282 157.543 195.313 164.769 205.409 176.518C208.075 179.596 210.403 182.949 212.355 186.52C213.821 189.228 215.47 191.559 218.197 193.139C220.631 194.524 223.421 195.16 226.217 194.966C229.013 194.771 231.688 193.756 233.905 192.047C237.05 189.584 239.309 185.789 241.742 182.665L250.228 171.771C250.842 170.795 251.553 169.882 252.35 169.048C252.922 168.576 251.978 168.992 252.165 168.874C252.268 168.81 252.449 168.846 252.562 168.8C253.127 168.638 253.706 168.531 254.292 168.479C260.488 167.342 266.698 166.279 272.92 165.29C295.897 161.592 319.023 158.541 342.245 156.897C354.214 155.944 366.228 155.658 378.229 156.041C393.748 156.674 409.052 159.748 424.514 161.074C441.161 162.502 458.647 162.305 474.333 155.902C486.888 150.777 498.546 142.154 505.344 130.245C508.569 124.613 510.48 118.327 510.935 111.856C511.764 97.1789 504.61 83.3382 494.323 73.224Z" fill="#A1A1AA"/>
<path d="M274.6 42C271.523 42 268.448 42.0164 265.375 42.0492C235.867 42.3638 205.371 44.7614 182.228 60.0465C161.687 73.6139 147.291 103.835 159.474 125.508C165.069 135.46 175.205 142.704 185.936 150.373C190.143 153.38 194.493 156.488 198.662 159.836C207.768 167.149 216.344 176.964 221.277 188L242.946 159.977L247.04 159.19C250.978 158.432 344.068 140.693 393.645 146.452C398.204 146.982 402.813 147.591 407.27 148.181C427.41 150.844 446.433 153.357 464.696 149.646C483.762 145.768 504.697 130.971 505.943 111.183C506.796 97.6362 498.026 82.7749 483.601 73.3221C469.015 63.7646 450.824 59.8186 433.441 56.5957C381.045 46.8935 327.878 42.0081 274.6 42Z" fill="#404040"/>
<path d="M438.706 86.4711H234.444C233.265 86.4711 232.135 86.0029 231.301 85.1694C230.468 84.336 230 83.2055 230 82.0268C230 80.8481 230.468 79.7177 231.301 78.8842C232.135 78.0508 233.265 77.5825 234.444 77.5825H438.706C439.885 77.5825 441.015 78.0508 441.849 78.8842C442.682 79.7177 443.15 80.8481 443.15 82.0268C443.15 83.2055 442.682 84.336 441.849 85.1694C441.015 86.0029 439.885 86.4711 438.706 86.4711Z" fill="#EC4899"/>
<path d="M438.706 113.751H234.444C233.265 113.751 232.135 113.283 231.301 112.449C230.468 111.616 230 110.485 230 109.307C230 108.128 230.468 106.997 231.301 106.164C232.135 105.331 233.265 104.862 234.444 104.862H438.706C439.885 104.862 441.015 105.331 441.849 106.164C442.682 106.997 443.15 108.128 443.15 109.307C443.15 110.485 442.682 111.616 441.849 112.449C441.015 113.283 439.885 113.751 438.706 113.751Z" fill="#EC4899"/>
<path d="M258.248 141.03H234.444C233.265 141.03 232.135 140.561 231.301 139.728C230.468 138.895 230 137.764 230 136.585C230 135.407 230.468 134.276 231.301 133.443C232.135 132.609 233.265 132.141 234.444 132.141H258.248C259.426 132.141 260.557 132.609 261.39 133.443C262.224 134.276 262.692 135.407 262.692 136.585C262.692 137.764 262.224 138.895 261.39 139.728C260.557 140.561 259.426 141.03 258.248 141.03Z" fill="#EC4899"/>
<path d="M221.342 247.632C231.774 247.632 240.231 239.175 240.231 228.743C240.231 218.31 231.774 209.853 221.342 209.853C210.909 209.853 202.452 218.31 202.452 228.743C202.452 239.175 210.909 247.632 221.342 247.632Z" fill="#9333EA"/>
<path d="M419.881 313.668C422.591 309.595 420.987 303.766 416.3 300.647C411.612 297.528 405.615 298.301 402.906 302.374C400.196 306.446 401.8 312.276 406.488 315.395C411.175 318.513 417.172 317.74 419.881 313.668Z" fill="#BE185D"/>
<path d="M571.681 459.744C574.39 455.672 572.786 449.842 568.099 446.723C563.411 443.605 557.415 444.378 554.705 448.45C551.996 452.523 553.599 458.352 558.287 461.471C562.975 464.59 568.971 463.817 571.681 459.744Z" fill="#9333EA"/>
<path d="M210.881 424.668C213.591 420.595 211.987 414.766 207.3 411.647C202.612 408.528 196.615 409.301 193.906 413.374C191.196 417.446 192.8 423.276 197.488 426.395C202.175 429.513 208.172 428.74 210.881 424.668Z" fill="#A855F7"/>
<path d="M356.417 715.978H345.379L340.127 673.404H356.417V715.978Z" fill="#FFB6B6"/>
<path d="M362.243 735.102H354.327L352.914 727.629L349.296 735.102H328.302C327.296 735.102 326.316 734.78 325.505 734.184C324.694 733.588 324.096 732.748 323.796 731.787C323.497 730.826 323.512 729.795 323.84 728.844C324.169 727.892 324.792 727.071 325.62 726.499L342.385 714.921V707.365L360.019 708.418L362.243 735.102Z" fill="#2F2E41"/>
<path d="M294.417 715.978H283.379L278.127 673.404H294.417V715.978Z" fill="#FFB6B6"/>
<path d="M300.243 735.102H292.327L290.914 727.629L287.296 735.102H266.302C265.295 735.102 264.315 734.78 263.505 734.184C262.694 733.588 262.096 732.748 261.796 731.787C261.497 730.826 261.512 729.795 261.84 728.844C262.168 727.892 262.792 727.071 263.62 726.499L280.385 714.921V707.365L298.019 708.418L300.243 735.102Z" fill="#2F2E41"/>
<path d="M361.179 679.264H361.059L358.937 610.041C360.31 607.391 361.007 604.443 360.966 601.458C360.925 598.474 360.146 595.546 358.699 592.936L358.395 592.385L359.183 588.733C360.195 584.04 359.731 579.149 357.854 574.73L355.873 510.158C362.948 464.306 329.231 434.404 329.231 434.404H278.723L267.88 471.66C260.711 541.5 262.012 609.558 273.387 675.494L273.077 675.651C271.96 676.036 271.482 677.583 272.007 679.106C272.533 680.629 273.864 681.551 274.981 681.165L301.655 680.238C302.772 679.852 303.251 678.305 302.725 676.782C302.199 675.26 300.868 674.338 299.751 674.723L297.938 675.64L301.806 608.842L301.376 596.641L302.261 582.799L306.349 520.539L321.825 597.102L337.634 680.035C337.198 680.429 336.892 680.947 336.756 681.52C336.62 682.092 336.661 682.692 336.874 683.24C337.086 683.789 337.46 684.26 337.946 684.592C338.431 684.923 339.006 685.1 339.594 685.098H361.179C361.953 685.098 362.695 684.791 363.242 684.244C363.789 683.697 364.096 682.955 364.096 682.181C364.096 681.408 363.789 680.666 363.242 680.119C362.695 679.571 361.953 679.264 361.179 679.264Z" fill="#2F2E41"/>
<path d="M337.624 485.709C338.764 485.007 339.736 484.064 340.472 482.945C341.208 481.827 341.69 480.561 341.883 479.236C342.077 477.911 341.978 476.56 341.593 475.278C341.208 473.996 340.546 472.814 339.655 471.815L347.391 388.768L327.535 390.302L326.175 471.452C324.596 473.06 323.662 475.192 323.55 477.443C323.438 479.695 324.155 481.909 325.567 483.666C326.978 485.424 328.985 486.602 331.207 486.979C333.43 487.355 335.713 486.904 337.624 485.709Z" fill="#FFB6B6"/>
<path d="M342.733 344.811C342.733 344.811 347.52 344.111 346.965 354.346C346.521 362.539 348.631 413.042 345.026 423.849C346.386 424.687 347.428 425.953 347.989 427.448C348.55 428.943 348.597 430.582 348.124 432.107L324.966 427.171C322.268 422.534 322.827 417.773 324.788 417.001L324.672 402.181L319.554 353.33L339.264 345.256L342.733 344.811Z" fill="#EC4899"/>
</g>
<defs>
<clipPath id="clip0_998_2">
<rect width="652.675" height="737.697" fill="white"/>
</clipPath>
</defs>
</svg>
